{
	"asset":{
		"generator":"Khronos glTF Blender I/O v4.1.63",
		"version":"2.0"
	},
	"scene":0,
	"scenes":[
		{
			"name":"Scene",
			"nodes":[
				0
			]
		}
	],
	"nodes":[
		{
			"mesh":0,
			"name":"MT 8080 0001_D\u0082faut"
		}
	],
	"materials":[
		{
			"doubleSided":true,
			"name":"mat_2",
			"pbrMetallicRoughness":{
				"metallicFactor":0.5,
				"roughnessFactor":0.5
			}
		},
		{
			"doubleSided":true,
			"name":"mat_3",
			"pbrMetallicRoughness":{
				"baseColorFactor":[
					0.3049873411655426,
					0.3049873411655426,
					0.35640010237693787,
					1
				],
				"metallicFactor":0.5,
				"roughnessFactor":0.5
			}
		},
		{
			"doubleSided":true,
			"name":"mat_1",
			"pbrMetallicRoughness":{
				"baseColorFactor":[
					0.5647115111351013,
					0.5332763195037842,
					0.5028864741325378,
					1
				],
				"metallicFactor":0.5,
				"roughnessFactor":0.5
			}
		},
		{
			"doubleSided":true,
			"name":"mat_0",
			"pbrMetallicRoughness":{
				"baseColorFactor":[
					0.7230551242828369,
					0.7230551242828369,
					0.7681511640548706,
					1
				],
				"metallicFactor":0.5,
				"roughnessFactor":0.5
			}
		}
	],
	"meshes":[
		{
			"name":"MT 8080 0001_D\u0082faut",
			"primitives":[
				{
					"attributes":{
						"POSITION":0,
						"NORMAL":1
					},
					"indices":2,
					"material":0
				},
				{
					"attributes":{
						"POSITION":3,
						"NORMAL":4
					},
					"indices":5,
					"material":1
				},
				{
					"attributes":{
						"POSITION":6,
						"NORMAL":7
					},
					"indices":8,
					"material":2
				},
				{
					"attributes":{
						"POSITION":9,
						"NORMAL":10
					},
					"indices":11,
					"material":3
				}
			]
		}
	],
	"accessors":[
		{
			"bufferView":0,
			"componentType":5126,
			"count":12809,
			"max":[
				0.04125005006790161,
				0.3197462856769562,
				0.044228266924619675
			],
			"min":[
				-0.04124995693564415,
				0.16549992561340332,
				-0.04422827810049057
			],
			"type":"VEC3"
		},
		{
			"bufferView":1,
			"componentType":5126,
			"count":12809,
			"type":"VEC3"
		},
		{
			"bufferView":2,
			"componentType":5123,
			"count":47598,
			"type":"SCALAR"
		},
		{
			"bufferView":3,
			"componentType":5126,
			"count":3833,
			"max":[
				0.04125005006790161,
				0.3167499303817749,
				0.04125002399086952
			],
			"min":[
				-0.041397422552108765,
				0.16549992561340332,
				-0.041250020265579224
			],
			"type":"VEC3"
		},
		{
			"bufferView":4,
			"componentType":5126,
			"count":3833,
			"type":"VEC3"
		},
		{
			"bufferView":5,
			"componentType":5123,
			"count":21774,
			"type":"SCALAR"
		},
		{
			"bufferView":6,
			"componentType":5126,
			"count":527,
			"max":[
				0.03906230628490448,
				0.31456220149993896,
				0.009178992360830307
			],
			"min":[
				-0.014999992214143276,
				0.17049992084503174,
				0.005468395538628101
			],
			"type":"VEC3"
		},
		{
			"bufferView":7,
			"componentType":5126,
			"count":527,
			"type":"VEC3"
		},
		{
			"bufferView":8,
			"componentType":5123,
			"count":984,
			"type":"SCALAR"
		},
		{
			"bufferView":9,
			"componentType":5126,
			"count":5353,
			"max":[
				0.04121601954102516,
				0.31671592593193054,
				0.041246239095926285
			],
			"min":[
				-0.041215930134058,
				0.15699990093708038,
				-0.04124623164534569
			],
			"type":"VEC3"
		},
		{
			"bufferView":10,
			"componentType":5126,
			"count":5353,
			"type":"VEC3"
		},
		{
			"bufferView":11,
			"componentType":5123,
			"count":16128,
			"type":"SCALAR"
		}
	],
	"bufferViews":[
		{
			"buffer":0,
			"byteLength":153708,
			"byteOffset":0,
			"target":34962
		},
		{
			"buffer":0,
			"byteLength":153708,
			"byteOffset":153708,
			"target":34962
		},
		{
			"buffer":0,
			"byteLength":95196,
			"byteOffset":307416,
			"target":34963
		},
		{
			"buffer":0,
			"byteLength":45996,
			"byteOffset":402612,
			"target":34962
		},
		{
			"buffer":0,
			"byteLength":45996,
			"byteOffset":448608,
			"target":34962
		},
		{
			"buffer":0,
			"byteLength":43548,
			"byteOffset":494604,
			"target":34963
		},
		{
			"buffer":0,
			"byteLength":6324,
			"byteOffset":538152,
			"target":34962
		},
		{
			"buffer":0,
			"byteLength":6324,
			"byteOffset":544476,
			"target":34962
		},
		{
			"buffer":0,
			"byteLength":1968,
			"byteOffset":550800,
			"target":34963
		},
		{
			"buffer":0,
			"byteLength":64236,
			"byteOffset":552768,
			"target":34962
		},
		{
			"buffer":0,
			"byteLength":64236,
			"byteOffset":617004,
			"target":34962
		},
		{
			"buffer":0,
			"byteLength":32256,
			"byteOffset":681240,
			"target":34963
		}
	],
	"buffers":[
		{
			"byteLength":713496,
			"uri":"KINOVA_Gen2_j1.bin"
		}
	]
}
