{
	"asset":{
		"generator":"Khronos glTF Blender I/O v4.1.63",
		"version":"2.0"
	},
	"scene":0,
	"scenes":[
		{
			"name":"Scene",
			"nodes":[
				0
			]
		}
	],
	"nodes":[
		{
			"mesh":0,
			"name":"0315_04_D\u0082faut001"
		}
	],
	"materials":[
		{
			"doubleSided":true,
			"name":"mat_14",
			"pbrMetallicRoughness":{
				"baseColorFactor":[
					1,
					0,
					0,
					1
				],
				"metallicFactor":0.5,
				"roughnessFactor":0.5
			}
		},
		{
			"doubleSided":true,
			"name":"mat_10",
			"pbrMetallicRoughness":{
				"baseColorFactor":[
					0.3185468018054962,
					0.3185468018054962,
					0.3185468018054962,
					1
				],
				"metallicFactor":0.5,
				"roughnessFactor":0.5
			}
		},
		{
			"doubleSided":true,
			"name":"mat_6",
			"pbrMetallicRoughness":{
				"baseColorFactor":[
					0.5906188488006592,
					0.6375969052314758,
					0.8549926280975342,
					1
				],
				"metallicFactor":0.5,
				"roughnessFactor":0.5
			}
		},
		{
			"doubleSided":true,
			"name":"mat_11",
			"pbrMetallicRoughness":{
				"baseColorFactor":[
					0.5583404302597046,
					0.5271151661872864,
					0.002124688820913434,
					1
				],
				"metallicFactor":0.5,
				"roughnessFactor":0.5
			}
		},
		{
			"doubleSided":true,
			"name":"mat_12",
			"pbrMetallicRoughness":{
				"baseColorFactor":[
					0.018500221893191338,
					0.017641952261328697,
					0.020288560539484024,
					1
				],
				"metallicFactor":0.5,
				"roughnessFactor":0.5
			}
		},
		{
			"doubleSided":true,
			"name":"mat_13",
			"pbrMetallicRoughness":{
				"baseColorFactor":[
					0.693871796131134,
					0.693871796131134,
					0.693871796131134,
					1
				],
				"metallicFactor":0.5,
				"roughnessFactor":0.5
			}
		},
		{
			"doubleSided":true,
			"name":"mat_15",
			"pbrMetallicRoughness":{
				"baseColorFactor":[
					0.057805437594652176,
					0.057805437594652176,
					0.057805437594652176,
					1
				],
				"metallicFactor":0.5,
				"roughnessFactor":0.5
			}
		},
		{
			"doubleSided":true,
			"name":"mat_16",
			"pbrMetallicRoughness":{
				"baseColorFactor":[
					0.5271151661872864,
					0.48514994978904724,
					0.09758735448122025,
					1
				],
				"metallicFactor":0.5,
				"roughnessFactor":0.5
			}
		},
		{
			"doubleSided":true,
			"name":"mat_7",
			"pbrMetallicRoughness":{
				"baseColorFactor":[
					0.05126945301890373,
					0.05126945301890373,
					0.05126945301890373,
					1
				],
				"metallicFactor":0.5,
				"roughnessFactor":0.5
			}
		},
		{
			"doubleSided":true,
			"name":"mat_8",
			"pbrMetallicRoughness":{
				"baseColorFactor":[
					1,
					0.6038273572921753,
					0.06301000714302063,
					1
				],
				"metallicFactor":0.5,
				"roughnessFactor":0.5
			}
		},
		{
			"doubleSided":true,
			"name":"mat_9",
			"pbrMetallicRoughness":{
				"baseColorFactor":[
					0.3662526309490204,
					0.4019778072834015,
					0.41788509488105774,
					1
				],
				"metallicFactor":0.5,
				"roughnessFactor":0.5
			}
		},
		{
			"doubleSided":true,
			"name":"mat_4",
			"pbrMetallicRoughness":{
				"baseColorFactor":[
					0.5271151661872864,
					0.5271151661872864,
					0.5271151661872864,
					1
				],
				"metallicFactor":0.5,
				"roughnessFactor":0.5
			}
		},
		{
			"doubleSided":true,
			"name":"mat_2",
			"pbrMetallicRoughness":{
				"metallicFactor":0.5,
				"roughnessFactor":0.5
			}
		},
		{
			"doubleSided":true,
			"name":"mat_5",
			"pbrMetallicRoughness":{
				"baseColorFactor":[
					0.004776953253895044,
					0.4125426411628723,
					1,
					1
				],
				"metallicFactor":0.5,
				"roughnessFactor":0.5
			}
		},
		{
			"doubleSided":true,
			"name":"mat_0",
			"pbrMetallicRoughness":{
				"baseColorFactor":[
					0.7758222222328186,
					0.8148465752601624,
					0.8468732237815857,
					1
				],
				"metallicFactor":0.5,
				"roughnessFactor":0.5
			}
		},
		{
			"doubleSided":true,
			"name":"mat_1",
			"pbrMetallicRoughness":{
				"baseColorFactor":[
					0.3049873411655426,
					0.3049873411655426,
					0.35640010237693787,
					1
				],
				"metallicFactor":0.5,
				"roughnessFactor":0.5
			}
		},
		{
			"doubleSided":true,
			"name":"mat_3",
			"pbrMetallicRoughness":{
				"baseColorFactor":[
					0.9734452962875366,
					0.5028864741325378,
					0.23074007034301758,
					1
				],
				"metallicFactor":0.5,
				"roughnessFactor":0.5
			}
		}
	],
	"meshes":[
		{
			"name":"0315_04_D\u0082faut001",
			"primitives":[
				{
					"attributes":{
						"POSITION":0,
						"NORMAL":1
					},
					"indices":2,
					"material":0
				},
				{
					"attributes":{
						"POSITION":3,
						"NORMAL":4
					},
					"indices":5,
					"material":1
				},
				{
					"attributes":{
						"POSITION":6,
						"NORMAL":7
					},
					"indices":8,
					"material":2
				},
				{
					"attributes":{
						"POSITION":9,
						"NORMAL":10
					},
					"indices":11,
					"material":3
				},
				{
					"attributes":{
						"POSITION":12,
						"NORMAL":13
					},
					"indices":14,
					"material":4
				},
				{
					"attributes":{
						"POSITION":15,
						"NORMAL":16
					},
					"indices":17,
					"material":5
				},
				{
					"attributes":{
						"POSITION":18,
						"NORMAL":19
					},
					"indices":20,
					"material":6
				},
				{
					"attributes":{
						"POSITION":21,
						"NORMAL":22
					},
					"indices":23,
					"material":7
				},
				{
					"attributes":{
						"POSITION":24,
						"NORMAL":25
					},
					"indices":26,
					"material":8
				},
				{
					"attributes":{
						"POSITION":27,
						"NORMAL":28
					},
					"indices":29,
					"material":9
				},
				{
					"attributes":{
						"POSITION":30,
						"NORMAL":31
					},
					"indices":32,
					"material":10
				},
				{
					"attributes":{
						"POSITION":33,
						"NORMAL":34
					},
					"indices":35,
					"material":11
				},
				{
					"attributes":{
						"POSITION":36,
						"NORMAL":37
					},
					"indices":38,
					"material":12
				},
				{
					"attributes":{
						"POSITION":39,
						"NORMAL":40
					},
					"indices":41,
					"material":13
				},
				{
					"attributes":{
						"POSITION":42,
						"NORMAL":43
					},
					"indices":44,
					"material":14
				},
				{
					"attributes":{
						"POSITION":45,
						"NORMAL":46
					},
					"indices":47,
					"material":15
				},
				{
					"attributes":{
						"POSITION":48,
						"NORMAL":49
					},
					"indices":50,
					"material":16
				}
			]
		}
	],
	"accessors":[
		{
			"bufferView":0,
			"componentType":5126,
			"count":4732,
			"max":[
				0.02556331641972065,
				0.09160500019788742,
				-0.029879998415708542
			],
			"min":[
				-0.02559271827340126,
				0.07239490747451782,
				-0.031229998916387558
			],
			"type":"VEC3"
		},
		{
			"bufferView":1,
			"componentType":5126,
			"count":4732,
			"type":"VEC3"
		},
		{
			"bufferView":2,
			"componentType":5123,
			"count":26199,
			"type":"SCALAR"
		},
		{
			"bufferView":3,
			"componentType":5126,
			"count":5183,
			"max":[
				-0.0059999930672347546,
				0.09199995547533035,
				-0.029079996049404144
			],
			"min":[
				-0.025999996811151505,
				0.07199995964765549,
				-0.046080004423856735
			],
			"type":"VEC3"
		},
		{
			"bufferView":4,
			"componentType":5126,
			"count":5183,
			"type":"VEC3"
		},
		{
			"bufferView":5,
			"componentType":5123,
			"count":22164,
			"type":"SCALAR"
		},
		{
			"bufferView":6,
			"componentType":5126,
			"count":7251,
			"max":[
				0.02743002586066723,
				0.11499591916799545,
				-0.011029995046555996
			],
			"min":[
				-0.025997167453169823,
				0.07199996709823608,
				-0.0384799987077713
			],
			"type":"VEC3"
		},
		{
			"bufferView":7,
			"componentType":5126,
			"count":7251,
			"type":"VEC3"
		},
		{
			"bufferView":8,
			"componentType":5123,
			"count":16833,
			"type":"SCALAR"
		},
		{
			"bufferView":9,
			"componentType":5126,
			"count":1167,
			"max":[
				-0.011678588576614857,
				0.08583151549100876,
				-0.02808000147342682
			],
			"min":[
				-0.020321406424045563,
				0.07991839945316315,
				-0.04508000612258911
			],
			"type":"VEC3"
		},
		{
			"bufferView":10,
			"componentType":5126,
			"count":1167,
			"type":"VEC3"
		},
		{
			"bufferView":11,
			"componentType":5123,
			"count":3408,
			"type":"SCALAR"
		},
		{
			"bufferView":12,
			"componentType":5126,
			"count":666,
			"max":[
				0.021900007501244545,
				0.08849995583295822,
				-0.02577999234199524
			],
			"min":[
				-0.022049998864531517,
				0.0755104050040245,
				-0.037080004811286926
			],
			"type":"VEC3"
		},
		{
			"bufferView":13,
			"componentType":5126,
			"count":666,
			"type":"VEC3"
		},
		{
			"bufferView":14,
			"componentType":5123,
			"count":2034,
			"type":"SCALAR"
		},
		{
			"bufferView":15,
			"componentType":5126,
			"count":39,
			"max":[
				0.02440008707344532,
				0.08523105084896088,
				-0.030580000951886177
			],
			"min":[
				-0.008499995805323124,
				0.07876885682344437,
				-0.04158000648021698
			],
			"type":"VEC3"
		},
		{
			"bufferView":16,
			"componentType":5126,
			"count":39,
			"type":"VEC3"
		},
		{
			"bufferView":17,
			"componentType":5123,
			"count":81,
			"type":"SCALAR"
		},
		{
			"bufferView":18,
			"componentType":5126,
			"count":835,
			"max":[
				0.02189740724861622,
				0.08789996057748795,
				-0.03122999332845211
			],
			"min":[
				0.010102605447173119,
				0.0762338936328888,
				-0.03878000006079674
			],
			"type":"VEC3"
		},
		{
			"bufferView":19,
			"componentType":5126,
			"count":835,
			"type":"VEC3"
		},
		{
			"bufferView":20,
			"componentType":5123,
			"count":2409,
			"type":"SCALAR"
		},
		{
			"bufferView":21,
			"componentType":5126,
			"count":2122,
			"max":[
				0.020591987296938896,
				0.08659996092319489,
				-0.02067999355494976
			],
			"min":[
				0.011408026330173016,
				0.0784250870347023,
				-0.037779998034238815
			],
			"type":"VEC3"
		},
		{
			"bufferView":22,
			"componentType":5126,
			"count":2122,
			"type":"VEC3"
		},
		{
			"bufferView":23,
			"componentType":5123,
			"count":5472,
			"type":"SCALAR"
		},
		{
			"bufferView":24,
			"componentType":5126,
			"count":2391,
			"max":[
				0.008370013907551765,
				0.11749941855669022,
				-0.010689997114241123
			],
			"min":[
				-0.029379991814494133,
				0.0944969430565834,
				-0.04032783582806587
			],
			"type":"VEC3"
		},
		{
			"bufferView":25,
			"componentType":5126,
			"count":2391,
			"type":"VEC3"
		},
		{
			"bufferView":26,
			"componentType":5123,
			"count":6822,
			"type":"SCALAR"
		},
		{
			"bufferView":27,
			"componentType":5126,
			"count":498,
			"max":[
				0.005820013117045164,
				0.09862043708562851,
				-0.019775455817580223
			],
			"min":[
				-0.0016799893928691745,
				0.0971999317407608,
				-0.025456853210926056
			],
			"type":"VEC3"
		},
		{
			"bufferView":28,
			"componentType":5126,
			"count":498,
			"type":"VEC3"
		},
		{
			"bufferView":29,
			"componentType":5123,
			"count":1296,
			"type":"SCALAR"
		},
		{
			"bufferView":30,
			"componentType":5126,
			"count":2917,
			"max":[
				0.009989608079195023,
				0.10169991850852966,
				-0.011145437136292458
			],
			"min":[
				-0.005849584937095642,
				0.094699926674366,
				-0.02995000220835209
			],
			"type":"VEC3"
		},
		{
			"bufferView":31,
			"componentType":5126,
			"count":2917,
			"type":"VEC3"
		},
		{
			"bufferView":32,
			"componentType":5123,
			"count":6216,
			"type":"SCALAR"
		},
		{
			"bufferView":33,
			"componentType":5126,
			"count":10792,
			"max":[
				0.04134996607899666,
				0.10300067812204361,
				0.04134998098015785
			],
			"min":[
				-0.04134998843073845,
				-9.495929376157619e-09,
				-0.04124736413359642
			],
			"type":"VEC3"
		},
		{
			"bufferView":34,
			"componentType":5126,
			"count":10792,
			"type":"VEC3"
		},
		{
			"bufferView":35,
			"componentType":5123,
			"count":40884,
			"type":"SCALAR"
		},
		{
			"bufferView":36,
			"componentType":5126,
			"count":15290,
			"max":[
				0.04424639418721199,
				0.16824989020824432,
				0.04422823339700699
			],
			"min":[
				-0.04424634203314781,
				0.019999977201223373,
				-0.04422823339700699
			],
			"type":"VEC3"
		},
		{
			"bufferView":37,
			"componentType":5126,
			"count":15290,
			"type":"VEC3"
		},
		{
			"bufferView":38,
			"componentType":5123,
			"count":46206,
			"type":"SCALAR"
		},
		{
			"bufferView":39,
			"componentType":5126,
			"count":208,
			"max":[
				-0.011715885251760483,
				0.06094825267791748,
				0.03965550661087036
			],
			"min":[
				-0.027709756046533585,
				0.04695461317896843,
				0.030691875144839287
			],
			"type":"VEC3"
		},
		{
			"bufferView":40,
			"componentType":5126,
			"count":208,
			"type":"VEC3"
		},
		{
			"bufferView":41,
			"componentType":5123,
			"count":540,
			"type":"SCALAR"
		},
		{
			"bufferView":42,
			"componentType":5126,
			"count":1758,
			"max":[
				0.037326518446207047,
				0.048999983817338943,
				0.03732999041676521
			],
			"min":[
				-0.03732655569911003,
				1.2347829425607415e-09,
				-0.03732999041676521
			],
			"type":"VEC3"
		},
		{
			"bufferView":43,
			"componentType":5126,
			"count":1758,
			"type":"VEC3"
		},
		{
			"bufferView":44,
			"componentType":5123,
			"count":4710,
			"type":"SCALAR"
		},
		{
			"bufferView":45,
			"componentType":5126,
			"count":3435,
			"max":[
				0.04124999791383743,
				0.14799991250038147,
				0.04125310108065605
			],
			"min":[
				-0.04124996066093445,
				0.019999977201223373,
				-0.04125029966235161
			],
			"type":"VEC3"
		},
		{
			"bufferView":46,
			"componentType":5126,
			"count":3435,
			"type":"VEC3"
		},
		{
			"bufferView":47,
			"componentType":5123,
			"count":14343,
			"type":"SCALAR"
		},
		{
			"bufferView":48,
			"componentType":5126,
			"count":278,
			"max":[
				0.038729969412088394,
				0.0508478544652462,
				0.03872998431324959
			],
			"min":[
				-0.038729988038539886,
				0.019999977201223373,
				-0.03872998431324959
			],
			"type":"VEC3"
		},
		{
			"bufferView":49,
			"componentType":5126,
			"count":278,
			"type":"VEC3"
		},
		{
			"bufferView":50,
			"componentType":5123,
			"count":810,
			"type":"SCALAR"
		}
	],
	"bufferViews":[
		{
			"buffer":0,
			"byteLength":56784,
			"byteOffset":0,
			"target":34962
		},
		{
			"buffer":0,
			"byteLength":56784,
			"byteOffset":56784,
			"target":34962
		},
		{
			"buffer":0,
			"byteLength":52398,
			"byteOffset":113568,
			"target":34963
		},
		{
			"buffer":0,
			"byteLength":62196,
			"byteOffset":165968,
			"target":34962
		},
		{
			"buffer":0,
			"byteLength":62196,
			"byteOffset":228164,
			"target":34962
		},
		{
			"buffer":0,
			"byteLength":44328,
			"byteOffset":290360,
			"target":34963
		},
		{
			"buffer":0,
			"byteLength":87012,
			"byteOffset":334688,
			"target":34962
		},
		{
			"buffer":0,
			"byteLength":87012,
			"byteOffset":421700,
			"target":34962
		},
		{
			"buffer":0,
			"byteLength":33666,
			"byteOffset":508712,
			"target":34963
		},
		{
			"buffer":0,
			"byteLength":14004,
			"byteOffset":542380,
			"target":34962
		},
		{
			"buffer":0,
			"byteLength":14004,
			"byteOffset":556384,
			"target":34962
		},
		{
			"buffer":0,
			"byteLength":6816,
			"byteOffset":570388,
			"target":34963
		},
		{
			"buffer":0,
			"byteLength":7992,
			"byteOffset":577204,
			"target":34962
		},
		{
			"buffer":0,
			"byteLength":7992,
			"byteOffset":585196,
			"target":34962
		},
		{
			"buffer":0,
			"byteLength":4068,
			"byteOffset":593188,
			"target":34963
		},
		{
			"buffer":0,
			"byteLength":468,
			"byteOffset":597256,
			"target":34962
		},
		{
			"buffer":0,
			"byteLength":468,
			"byteOffset":597724,
			"target":34962
		},
		{
			"buffer":0,
			"byteLength":162,
			"byteOffset":598192,
			"target":34963
		},
		{
			"buffer":0,
			"byteLength":10020,
			"byteOffset":598356,
			"target":34962
		},
		{
			"buffer":0,
			"byteLength":10020,
			"byteOffset":608376,
			"target":34962
		},
		{
			"buffer":0,
			"byteLength":4818,
			"byteOffset":618396,
			"target":34963
		},
		{
			"buffer":0,
			"byteLength":25464,
			"byteOffset":623216,
			"target":34962
		},
		{
			"buffer":0,
			"byteLength":25464,
			"byteOffset":648680,
			"target":34962
		},
		{
			"buffer":0,
			"byteLength":10944,
			"byteOffset":674144,
			"target":34963
		},
		{
			"buffer":0,
			"byteLength":28692,
			"byteOffset":685088,
			"target":34962
		},
		{
			"buffer":0,
			"byteLength":28692,
			"byteOffset":713780,
			"target":34962
		},
		{
			"buffer":0,
			"byteLength":13644,
			"byteOffset":742472,
			"target":34963
		},
		{
			"buffer":0,
			"byteLength":5976,
			"byteOffset":756116,
			"target":34962
		},
		{
			"buffer":0,
			"byteLength":5976,
			"byteOffset":762092,
			"target":34962
		},
		{
			"buffer":0,
			"byteLength":2592,
			"byteOffset":768068,
			"target":34963
		},
		{
			"buffer":0,
			"byteLength":35004,
			"byteOffset":770660,
			"target":34962
		},
		{
			"buffer":0,
			"byteLength":35004,
			"byteOffset":805664,
			"target":34962
		},
		{
			"buffer":0,
			"byteLength":12432,
			"byteOffset":840668,
			"target":34963
		},
		{
			"buffer":0,
			"byteLength":129504,
			"byteOffset":853100,
			"target":34962
		},
		{
			"buffer":0,
			"byteLength":129504,
			"byteOffset":982604,
			"target":34962
		},
		{
			"buffer":0,
			"byteLength":81768,
			"byteOffset":1112108,
			"target":34963
		},
		{
			"buffer":0,
			"byteLength":183480,
			"byteOffset":1193876,
			"target":34962
		},
		{
			"buffer":0,
			"byteLength":183480,
			"byteOffset":1377356,
			"target":34962
		},
		{
			"buffer":0,
			"byteLength":92412,
			"byteOffset":1560836,
			"target":34963
		},
		{
			"buffer":0,
			"byteLength":2496,
			"byteOffset":1653248,
			"target":34962
		},
		{
			"buffer":0,
			"byteLength":2496,
			"byteOffset":1655744,
			"target":34962
		},
		{
			"buffer":0,
			"byteLength":1080,
			"byteOffset":1658240,
			"target":34963
		},
		{
			"buffer":0,
			"byteLength":21096,
			"byteOffset":1659320,
			"target":34962
		},
		{
			"buffer":0,
			"byteLength":21096,
			"byteOffset":1680416,
			"target":34962
		},
		{
			"buffer":0,
			"byteLength":9420,
			"byteOffset":1701512,
			"target":34963
		},
		{
			"buffer":0,
			"byteLength":41220,
			"byteOffset":1710932,
			"target":34962
		},
		{
			"buffer":0,
			"byteLength":41220,
			"byteOffset":1752152,
			"target":34962
		},
		{
			"buffer":0,
			"byteLength":28686,
			"byteOffset":1793372,
			"target":34963
		},
		{
			"buffer":0,
			"byteLength":3336,
			"byteOffset":1822060,
			"target":34962
		},
		{
			"buffer":0,
			"byteLength":3336,
			"byteOffset":1825396,
			"target":34962
		},
		{
			"buffer":0,
			"byteLength":1620,
			"byteOffset":1828732,
			"target":34963
		}
	],
	"buffers":[
		{
			"byteLength":1830352,
			"uri":"KINOVA_Gen2_base.bin"
		}
	]
}
