{
	"asset":{
		"generator":"Khronos glTF Blender I/O v4.1.63",
		"version":"2.0"
	},
	"scene":0,
	"scenes":[
		{
			"name":"Scene",
			"nodes":[
				0,
				2
			]
		}
	],
	"nodes":[
		{
			"mesh":0,
			"name":"MI 3636 0001_D\u0082faut002",
			"rotation":[
				0.7071068286895752,
				0,
				0,
				0.7071068286895752
			],
			"translation":[
				0,
				0,
				-0.004000000189989805
			]
		},
		{
			"name":"AM 5864 0003"
		},
		{
			"children":[
				1
			],
			"name":"KR845+KR757"
		}
	],
	"materials":[
		{
			"doubleSided":true,
			"name":"mat_1",
			"pbrMetallicRoughness":{
				"baseColorFactor":[
					0.6898906826972961,
					0.7449837327003479,
					1,
					1
				],
				"metallicFactor":0.5,
				"roughnessFactor":0.5
			}
		},
		{
			"doubleSided":true,
			"name":"mat_0",
			"pbrMetallicRoughness":{
				"baseColorFactor":[
					0.9205989837646484,
					1,
					1,
					1
				],
				"metallicFactor":0.5,
				"roughnessFactor":0.5
			}
		},
		{
			"doubleSided":true,
			"name":"mat_4",
			"pbrMetallicRoughness":{
				"baseColorFactor":[
					0.9408318996429443,
					0.9408315420150757,
					1,
					1
				],
				"metallicFactor":0.5,
				"roughnessFactor":0.5
			}
		},
		{
			"doubleSided":true,
			"name":"mat_2",
			"pbrMetallicRoughness":{
				"metallicFactor":0.5,
				"roughnessFactor":0.5
			}
		},
		{
			"doubleSided":true,
			"name":"mat_3",
			"pbrMetallicRoughness":{
				"baseColorFactor":[
					0.3049873411655426,
					0.3049873411655426,
					0.35640010237693787,
					1
				],
				"metallicFactor":0.5,
				"roughnessFactor":0.5
			}
		}
	],
	"meshes":[
		{
			"name":"MI 3636 0001_D\u0082faut.002",
			"primitives":[
				{
					"attributes":{
						"POSITION":0,
						"NORMAL":1
					},
					"indices":2,
					"material":0
				},
				{
					"attributes":{
						"POSITION":3,
						"NORMAL":4
					},
					"indices":5,
					"material":1
				},
				{
					"attributes":{
						"POSITION":6,
						"NORMAL":7
					},
					"indices":8,
					"material":2
				},
				{
					"attributes":{
						"POSITION":9,
						"NORMAL":10
					},
					"indices":11,
					"material":3
				},
				{
					"attributes":{
						"POSITION":12,
						"NORMAL":13
					},
					"indices":14,
					"material":4
				}
			]
		}
	],
	"accessors":[
		{
			"bufferView":0,
			"componentType":5126,
			"count":29030,
			"max":[
				0.05140966549515724,
				0.2310590147972107,
				0.041369859129190445
			],
			"min":[
				-0.05569435656070709,
				0.18838873505592346,
				-0.041249122470617294
			],
			"type":"VEC3"
		},
		{
			"bufferView":1,
			"componentType":5126,
			"count":29030,
			"type":"VEC3"
		},
		{
			"bufferView":2,
			"componentType":5123,
			"count":103176,
			"type":"SCALAR"
		},
		{
			"bufferView":3,
			"componentType":5126,
			"count":9369,
			"max":[
				0.023600032553076744,
				0.22683601081371307,
				0.025763506069779396
			],
			"min":[
				-0.01949574053287506,
				0.19933509826660156,
				-0.025761345401406288
			],
			"type":"VEC3"
		},
		{
			"bufferView":4,
			"componentType":5126,
			"count":9369,
			"type":"VEC3"
		},
		{
			"bufferView":5,
			"componentType":5123,
			"count":40029,
			"type":"SCALAR"
		},
		{
			"bufferView":6,
			"componentType":5126,
			"count":2315,
			"max":[
				0.03150000423192978,
				0.12799999117851257,
				0.03149997815489769
			],
			"min":[
				-0.03149999678134918,
				0.10999996215105057,
				-0.03149987757205963
			],
			"type":"VEC3"
		},
		{
			"bufferView":7,
			"componentType":5126,
			"count":2315,
			"type":"VEC3"
		},
		{
			"bufferView":8,
			"componentType":5123,
			"count":7020,
			"type":"SCALAR"
		},
		{
			"bufferView":9,
			"componentType":5126,
			"count":6001,
			"max":[
				0.0482821986079216,
				0.21324586868286133,
				0.044341303408145905
			],
			"min":[
				-0.0519498847424984,
				0.11699996143579483,
				-0.04430195689201355
			],
			"type":"VEC3"
		},
		{
			"bufferView":10,
			"componentType":5126,
			"count":6001,
			"type":"VEC3"
		},
		{
			"bufferView":11,
			"componentType":5123,
			"count":23685,
			"type":"SCALAR"
		},
		{
			"bufferView":12,
			"componentType":5126,
			"count":4370,
			"max":[
				0.050857506692409515,
				0.215150386095047,
				0.046377528458833694
			],
			"min":[
				-0.05423649400472641,
				0.11699996143579483,
				-0.046374011784791946
			],
			"type":"VEC3"
		},
		{
			"bufferView":13,
			"componentType":5126,
			"count":4370,
			"type":"VEC3"
		},
		{
			"bufferView":14,
			"componentType":5123,
			"count":20523,
			"type":"SCALAR"
		}
	],
	"bufferViews":[
		{
			"buffer":0,
			"byteLength":348360,
			"byteOffset":0,
			"target":34962
		},
		{
			"buffer":0,
			"byteLength":348360,
			"byteOffset":348360,
			"target":34962
		},
		{
			"buffer":0,
			"byteLength":206352,
			"byteOffset":696720,
			"target":34963
		},
		{
			"buffer":0,
			"byteLength":112428,
			"byteOffset":903072,
			"target":34962
		},
		{
			"buffer":0,
			"byteLength":112428,
			"byteOffset":1015500,
			"target":34962
		},
		{
			"buffer":0,
			"byteLength":80058,
			"byteOffset":1127928,
			"target":34963
		},
		{
			"buffer":0,
			"byteLength":27780,
			"byteOffset":1207988,
			"target":34962
		},
		{
			"buffer":0,
			"byteLength":27780,
			"byteOffset":1235768,
			"target":34962
		},
		{
			"buffer":0,
			"byteLength":14040,
			"byteOffset":1263548,
			"target":34963
		},
		{
			"buffer":0,
			"byteLength":72012,
			"byteOffset":1277588,
			"target":34962
		},
		{
			"buffer":0,
			"byteLength":72012,
			"byteOffset":1349600,
			"target":34962
		},
		{
			"buffer":0,
			"byteLength":47370,
			"byteOffset":1421612,
			"target":34963
		},
		{
			"buffer":0,
			"byteLength":52440,
			"byteOffset":1468984,
			"target":34962
		},
		{
			"buffer":0,
			"byteLength":52440,
			"byteOffset":1521424,
			"target":34962
		},
		{
			"buffer":0,
			"byteLength":41046,
			"byteOffset":1573864,
			"target":34963
		}
	],
	"buffers":[
		{
			"byteLength":1614912,
			"uri":"KINOVA_Gen2_j6.bin"
		}
	]
}
