{
	"asset":{
		"generator":"Khronos glTF Blender I/O v4.1.63",
		"version":"2.0"
	},
	"scene":0,
	"scenes":[
		{
			"name":"Scene",
			"nodes":[
				2
			]
		}
	],
	"nodes":[
		{
			"mesh":0,
			"name":"MI 5864 0001_D\u0082faut004"
		},
		{
			"children":[
				0
			],
			"name":"AM 5864 0003"
		},
		{
			"children":[
				1
			],
			"name":"KR845+KR757"
		}
	],
	"materials":[
		{
			"doubleSided":true,
			"name":"mat_0",
			"pbrMetallicRoughness":{
				"metallicFactor":0.5,
				"roughnessFactor":0.5
			}
		},
		{
			"doubleSided":true,
			"name":"mat_2",
			"pbrMetallicRoughness":{
				"baseColorFactor":[
					0.7230551242828369,
					0.7230551242828369,
					0.7681511640548706,
					1
				],
				"metallicFactor":0.5,
				"roughnessFactor":0.5
			}
		},
		{
			"doubleSided":true,
			"name":"mat_1",
			"pbrMetallicRoughness":{
				"baseColorFactor":[
					0.3049873411655426,
					0.3049873411655426,
					0.35640010237693787,
					1
				],
				"metallicFactor":0.5,
				"roughnessFactor":0.5
			}
		}
	],
	"meshes":[
		{
			"name":"MI 5864 0001_D\u0082faut004",
			"primitives":[
				{
					"attributes":{
						"POSITION":0,
						"NORMAL":1
					},
					"indices":2,
					"material":0
				},
				{
					"attributes":{
						"POSITION":3,
						"NORMAL":4
					},
					"indices":5,
					"material":1
				},
				{
					"attributes":{
						"POSITION":6,
						"NORMAL":7
					},
					"indices":8,
					"material":2
				}
			]
		}
	],
	"accessors":[
		{
			"bufferView":0,
			"componentType":5126,
			"count":10897,
			"max":[
				0.048068344593048096,
				0.03447564318776131,
				0.1134999543428421
			],
			"min":[
				-0.031950000673532486,
				-0.034475650638341904,
				-0.031499966979026794
			],
			"type":"VEC3"
		},
		{
			"bufferView":1,
			"componentType":5126,
			"count":10897,
			"type":"VEC3"
		},
		{
			"bufferView":2,
			"componentType":5123,
			"count":36888,
			"type":"SCALAR"
		},
		{
			"bufferView":3,
			"componentType":5126,
			"count":2316,
			"max":[
				0.020799998193979263,
				0.031499870121479034,
				0.031500041484832764
			],
			"min":[
				0.0028000003658235073,
				-0.03150000050663948,
				-0.031499966979026794
			],
			"type":"VEC3"
		},
		{
			"bufferView":4,
			"componentType":5126,
			"count":2316,
			"type":"VEC3"
		},
		{
			"bufferView":5,
			"componentType":5123,
			"count":7020,
			"type":"SCALAR"
		},
		{
			"bufferView":6,
			"componentType":5126,
			"count":1861,
			"max":[
				0.050093572586774826,
				0.03149999678134918,
				0.09650003910064697
			],
			"min":[
				-0.028960179537534714,
				-0.03150000423192978,
				-0.031499966979026794
			],
			"type":"VEC3"
		},
		{
			"bufferView":7,
			"componentType":5126,
			"count":1861,
			"type":"VEC3"
		},
		{
			"bufferView":8,
			"componentType":5123,
			"count":9990,
			"type":"SCALAR"
		}
	],
	"bufferViews":[
		{
			"buffer":0,
			"byteLength":130764,
			"byteOffset":0,
			"target":34962
		},
		{
			"buffer":0,
			"byteLength":130764,
			"byteOffset":130764,
			"target":34962
		},
		{
			"buffer":0,
			"byteLength":73776,
			"byteOffset":261528,
			"target":34963
		},
		{
			"buffer":0,
			"byteLength":27792,
			"byteOffset":335304,
			"target":34962
		},
		{
			"buffer":0,
			"byteLength":27792,
			"byteOffset":363096,
			"target":34962
		},
		{
			"buffer":0,
			"byteLength":14040,
			"byteOffset":390888,
			"target":34963
		},
		{
			"buffer":0,
			"byteLength":22332,
			"byteOffset":404928,
			"target":34962
		},
		{
			"buffer":0,
			"byteLength":22332,
			"byteOffset":427260,
			"target":34962
		},
		{
			"buffer":0,
			"byteLength":19980,
			"byteOffset":449592,
			"target":34963
		}
	],
	"buffers":[
		{
			"byteLength":469572,
			"uri":"KINOVA_Gen2_j5.bin"
		}
	]
}
