{
	"asset":{
		"generator":"Khronos glTF Blender I/O v4.1.63",
		"version":"2.0"
	},
	"scene":0,
	"scenes":[
		{
			"name":"Scene",
			"nodes":[
				0
			]
		}
	],
	"nodes":[
		{
			"mesh":0,
			"name":"MI 5864 0001_D\u0082faut003"
		}
	],
	"materials":[
		{
			"doubleSided":true,
			"name":"mat_1",
			"pbrMetallicRoughness":{
				"metallicFactor":0.5,
				"roughnessFactor":0.5
			}
		},
		{
			"doubleSided":true,
			"name":"mat_0",
			"pbrMetallicRoughness":{
				"baseColorFactor":[
					0.3049873411655426,
					0.3049873411655426,
					0.35640010237693787,
					1
				],
				"metallicFactor":0.5,
				"roughnessFactor":0.5
			}
		},
		{
			"doubleSided":true,
			"name":"mat_2",
			"pbrMetallicRoughness":{
				"baseColorFactor":[
					0.7230551242828369,
					0.7230551242828369,
					0.7681511640548706,
					1
				],
				"metallicFactor":0.5,
				"roughnessFactor":0.5
			}
		}
	],
	"meshes":[
		{
			"name":"MI 5864 0001_D\u0082faut002.001",
			"primitives":[
				{
					"attributes":{
						"POSITION":0,
						"NORMAL":1
					},
					"indices":2,
					"material":0
				},
				{
					"attributes":{
						"POSITION":3,
						"NORMAL":4
					},
					"indices":5,
					"material":1
				},
				{
					"attributes":{
						"POSITION":6,
						"NORMAL":7
					},
					"indices":8,
					"material":2
				}
			]
		}
	],
	"accessors":[
		{
			"bufferView":0,
			"componentType":5126,
			"count":10966,
			"max":[
				0.0247499980032444,
				0.21699997782707214,
				0.04125001281499863
			],
			"min":[
				-0.0442500002682209,
				-0.04125000536441803,
				-0.04125001281499863
			],
			"type":"VEC3"
		},
		{
			"bufferView":1,
			"componentType":5126,
			"count":10966,
			"type":"VEC3"
		},
		{
			"bufferView":2,
			"componentType":5123,
			"count":37908,
			"type":"SCALAR"
		},
		{
			"bufferView":3,
			"componentType":5126,
			"count":1892,
			"max":[
				0.021750029176473618,
				0.20000003278255463,
				0.04125001281499863
			],
			"min":[
				-0.04127195477485657,
				-0.04125000536441803,
				-0.04125001281499863
			],
			"type":"VEC3"
		},
		{
			"bufferView":4,
			"componentType":5126,
			"count":1892,
			"type":"VEC3"
		},
		{
			"bufferView":5,
			"componentType":5123,
			"count":10284,
			"type":"SCALAR"
		},
		{
			"bufferView":6,
			"componentType":5126,
			"count":2652,
			"max":[
				0.0015000029234215617,
				0.04121597111225128,
				0.041246216744184494
			],
			"min":[
				-0.024000003933906555,
				-0.04121597111225128,
				-0.041246216744184494
			],
			"type":"VEC3"
		},
		{
			"bufferView":7,
			"componentType":5126,
			"count":2652,
			"type":"VEC3"
		},
		{
			"bufferView":8,
			"componentType":5123,
			"count":8064,
			"type":"SCALAR"
		}
	],
	"bufferViews":[
		{
			"buffer":0,
			"byteLength":131592,
			"byteOffset":0,
			"target":34962
		},
		{
			"buffer":0,
			"byteLength":131592,
			"byteOffset":131592,
			"target":34962
		},
		{
			"buffer":0,
			"byteLength":75816,
			"byteOffset":263184,
			"target":34963
		},
		{
			"buffer":0,
			"byteLength":22704,
			"byteOffset":339000,
			"target":34962
		},
		{
			"buffer":0,
			"byteLength":22704,
			"byteOffset":361704,
			"target":34962
		},
		{
			"buffer":0,
			"byteLength":20568,
			"byteOffset":384408,
			"target":34963
		},
		{
			"buffer":0,
			"byteLength":31824,
			"byteOffset":404976,
			"target":34962
		},
		{
			"buffer":0,
			"byteLength":31824,
			"byteOffset":436800,
			"target":34962
		},
		{
			"buffer":0,
			"byteLength":16128,
			"byteOffset":468624,
			"target":34963
		}
	],
	"buffers":[
		{
			"byteLength":484752,
			"uri":"KINOVA_Gen2_j3.bin"
		}
	]
}
