{
	"asset":{
		"generator":"Khronos glTF Blender I/O v4.1.63",
		"version":"2.0"
	},
	"scene":0,
	"scenes":[
		{
			"name":"Scene",
			"nodes":[
				0,
				1
			]
		}
	],
	"nodes":[
		{
			"mesh":0,
			"name":"MH 0204 0004_D\u0082faut"
		},
		{
			"mesh":1,
			"name":"MI 2256 0001_D\u0082faut001"
		}
	],
	"materials":[
		{
			"doubleSided":true,
			"name":"mat_2",
			"pbrMetallicRoughness":{
				"baseColorFactor":[
					0.3762621581554413,
					0.34191444516181946,
					0.30054381489753723,
					1
				]
			}
		},
		{
			"doubleSided":true,
			"name":"mat_0",
			"pbrMetallicRoughness":{
				"baseColorFactor":[
					0.5271151661872864,
					0.5271151661872864,
					0.5271151661872864,
					1
				],
				"metallicFactor":0.5,
				"roughnessFactor":0.5
			}
		},
		{
			"doubleSided":true,
			"name":"mat_1",
			"pbrMetallicRoughness":{
				"baseColorFactor":[
					0.05126946419477463,
					0.05126946419477463,
					0.05126946419477463,
					1
				],
				"metallicFactor":0.5,
				"roughnessFactor":0.5
			}
		},
		{
			"doubleSided":true,
			"name":"mat_3",
			"pbrMetallicRoughness":{
				"baseColorFactor":[
					0.3762621581554413,
					0.34191444516181946,
					0.3049873411655426,
					1
				],
				"metallicFactor":0.5,
				"roughnessFactor":0.5
			}
		}
	],
	"meshes":[
		{
			"name":"MH 0204 0004_D\u0082faut",
			"primitives":[
				{
					"attributes":{
						"POSITION":0,
						"NORMAL":1
					},
					"indices":2,
					"material":0
				},
				{
					"attributes":{
						"POSITION":3,
						"NORMAL":4
					},
					"indices":5,
					"material":1
				},
				{
					"attributes":{
						"POSITION":6,
						"NORMAL":7
					},
					"indices":8,
					"material":2
				}
			]
		},
		{
			"name":"MI 2256 0001_D\u0082faut001",
			"primitives":[
				{
					"attributes":{
						"POSITION":9,
						"NORMAL":10
					},
					"indices":11,
					"material":2
				},
				{
					"attributes":{
						"POSITION":12,
						"NORMAL":13
					},
					"indices":14,
					"material":1
				},
				{
					"attributes":{
						"POSITION":15,
						"NORMAL":16
					},
					"indices":17,
					"material":3
				}
			]
		}
	],
	"accessors":[
		{
			"bufferView":0,
			"componentType":5126,
			"count":3334,
			"max":[
				-0.03020569123327732,
				0.0019999912474304438,
				0.07473482936620712
			],
			"min":[
				-0.03975765407085419,
				-0.0019999973010271788,
				0.056386008858680725
			],
			"type":"VEC3"
		},
		{
			"bufferView":1,
			"componentType":5126,
			"count":3334,
			"type":"VEC3"
		},
		{
			"bufferView":2,
			"componentType":5123,
			"count":14352,
			"type":"SCALAR"
		},
		{
			"bufferView":3,
			"componentType":5126,
			"count":6379,
			"max":[
				-0.008149909786880016,
				0.01125000137835741,
				0.07881208509206772
			],
			"min":[
				-0.03902120888233185,
				-0.011250006034970284,
				0.02853640727698803
			],
			"type":"VEC3"
		},
		{
			"bufferView":4,
			"componentType":5126,
			"count":6379,
			"type":"VEC3"
		},
		{
			"bufferView":5,
			"componentType":5123,
			"count":24078,
			"type":"SCALAR"
		},
		{
			"bufferView":6,
			"componentType":5126,
			"count":12787,
			"max":[
				-0.007974641397595406,
				0.01125000137835741,
				0.07957323640584946
			],
			"min":[
				-0.040494829416275024,
				-0.011250004172325134,
				0.03897650167346001
			],
			"type":"VEC3"
		},
		{
			"bufferView":7,
			"componentType":5126,
			"count":12787,
			"type":"VEC3"
		},
		{
			"bufferView":8,
			"componentType":5123,
			"count":40467,
			"type":"SCALAR"
		},
		{
			"bufferView":9,
			"componentType":5126,
			"count":11411,
			"max":[
				-0.0008818008936941624,
				0.01124999113380909,
				0.03708477318286896
			],
			"min":[
				-0.013255713507533073,
				-0.011250012554228306,
				0.009180180728435516
			],
			"type":"VEC3"
		},
		{
			"bufferView":10,
			"componentType":5126,
			"count":11411,
			"type":"VEC3"
		},
		{
			"bufferView":11,
			"componentType":5123,
			"count":37356,
			"type":"SCALAR"
		},
		{
			"bufferView":12,
			"componentType":5126,
			"count":10825,
			"max":[
				0.005408213473856449,
				0.011250004172325134,
				0.0480305515229702
			],
			"min":[
				-0.028107594698667526,
				-0.01125001534819603,
				-0.006175655871629715
			],
			"type":"VEC3"
		},
		{
			"bufferView":13,
			"componentType":5126,
			"count":10825,
			"type":"VEC3"
		},
		{
			"bufferView":14,
			"componentType":5123,
			"count":39915,
			"type":"SCALAR"
		},
		{
			"bufferView":15,
			"componentType":5126,
			"count":960,
			"max":[
				0.001499999430961907,
				0.011350000277161598,
				0.0015001492574810982
			],
			"min":[
				-0.0015000028070062399,
				-0.011350002139806747,
				-0.001499854726716876
			],
			"type":"VEC3"
		},
		{
			"bufferView":16,
			"componentType":5126,
			"count":960,
			"type":"VEC3"
		},
		{
			"bufferView":17,
			"componentType":5123,
			"count":2892,
			"type":"SCALAR"
		}
	],
	"bufferViews":[
		{
			"buffer":0,
			"byteLength":40008,
			"byteOffset":0,
			"target":34962
		},
		{
			"buffer":0,
			"byteLength":40008,
			"byteOffset":40008,
			"target":34962
		},
		{
			"buffer":0,
			"byteLength":28704,
			"byteOffset":80016,
			"target":34963
		},
		{
			"buffer":0,
			"byteLength":76548,
			"byteOffset":108720,
			"target":34962
		},
		{
			"buffer":0,
			"byteLength":76548,
			"byteOffset":185268,
			"target":34962
		},
		{
			"buffer":0,
			"byteLength":48156,
			"byteOffset":261816,
			"target":34963
		},
		{
			"buffer":0,
			"byteLength":153444,
			"byteOffset":309972,
			"target":34962
		},
		{
			"buffer":0,
			"byteLength":153444,
			"byteOffset":463416,
			"target":34962
		},
		{
			"buffer":0,
			"byteLength":80934,
			"byteOffset":616860,
			"target":34963
		},
		{
			"buffer":0,
			"byteLength":136932,
			"byteOffset":697796,
			"target":34962
		},
		{
			"buffer":0,
			"byteLength":136932,
			"byteOffset":834728,
			"target":34962
		},
		{
			"buffer":0,
			"byteLength":74712,
			"byteOffset":971660,
			"target":34963
		},
		{
			"buffer":0,
			"byteLength":129900,
			"byteOffset":1046372,
			"target":34962
		},
		{
			"buffer":0,
			"byteLength":129900,
			"byteOffset":1176272,
			"target":34962
		},
		{
			"buffer":0,
			"byteLength":79830,
			"byteOffset":1306172,
			"target":34963
		},
		{
			"buffer":0,
			"byteLength":11520,
			"byteOffset":1386004,
			"target":34962
		},
		{
			"buffer":0,
			"byteLength":11520,
			"byteOffset":1397524,
			"target":34962
		},
		{
			"buffer":0,
			"byteLength":5784,
			"byteOffset":1409044,
			"target":34963
		}
	],
	"buffers":[
		{
			"byteLength":1414828,
			"uri":"KINOVA_Gen2_finger.bin"
		}
	]
}
