{
	"asset":{
		"generator":"Khronos glTF Blender I/O v4.1.63",
		"version":"2.0"
	},
	"scene":0,
	"scenes":[
		{
			"name":"Scene",
			"nodes":[
				0
			]
		}
	],
	"nodes":[
		{
			"mesh":0,
			"name":"MI 2256 0001_D\u0082faut001",
			"rotation":[
				0.7071068286895752,
				0,
				0,
				0.7071068286895752
			]
		}
	],
	"materials":[
		{
			"doubleSided":true,
			"name":"mat_1",
			"pbrMetallicRoughness":{
				"baseColorFactor":[
					0.05126946419477463,
					0.05126946419477463,
					0.05126946419477463,
					1
				],
				"metallicFactor":0.5,
				"roughnessFactor":0.5
			}
		},
		{
			"doubleSided":true,
			"name":"mat_3",
			"pbrMetallicRoughness":{
				"baseColorFactor":[
					0.3762621581554413,
					0.34191444516181946,
					0.3049873411655426,
					1
				],
				"metallicFactor":0.5,
				"roughnessFactor":0.5
			}
		},
		{
			"doubleSided":true,
			"name":"mat_2",
			"pbrMetallicRoughness":{
				"baseColorFactor":[
					0.3762621581554413,
					0.34191444516181946,
					0.30054381489753723,
					1
				],
				"metallicFactor":0.5,
				"roughnessFactor":0.5
			}
		},
		{
			"doubleSided":true,
			"name":"mat_0",
			"pbrMetallicRoughness":{
				"baseColorFactor":[
					0.5271151661872864,
					0.5271151661872864,
					0.5271151661872864,
					1
				],
				"metallicFactor":0.5,
				"roughnessFactor":0.5
			}
		}
	],
	"meshes":[
		{
			"name":"MI 2256 0001_D\u0082faut001",
			"primitives":[
				{
					"attributes":{
						"POSITION":0,
						"NORMAL":1
					},
					"indices":2,
					"material":0
				},
				{
					"attributes":{
						"POSITION":3,
						"NORMAL":4
					},
					"indices":5,
					"material":1
				},
				{
					"attributes":{
						"POSITION":6,
						"NORMAL":7
					},
					"indices":8,
					"material":2
				},
				{
					"attributes":{
						"POSITION":9,
						"NORMAL":10
					},
					"indices":11,
					"material":3
				}
			]
		}
	],
	"accessors":[
		{
			"bufferView":0,
			"componentType":5126,
			"count":24143,
			"max":[
				0.040494807064533234,
				0.07957322150468826,
				0.011250002309679985
			],
			"min":[
				0.0008818008936941624,
				0.009156180545687675,
				-0.011250006034970284
			],
			"type":"VEC3"
		},
		{
			"bufferView":1,
			"componentType":5126,
			"count":24143,
			"type":"VEC3"
		},
		{
			"bufferView":2,
			"componentType":5123,
			"count":77823,
			"type":"SCALAR"
		},
		{
			"bufferView":3,
			"componentType":5126,
			"count":960,
			"max":[
				0.0015000008279457688,
				0.0014761517522856593,
				0.011350004002451897
			],
			"min":[
				-0.0015000016428530216,
				-0.0015238543273881078,
				-0.011350002139806747
			],
			"type":"VEC3"
		},
		{
			"bufferView":4,
			"componentType":5126,
			"count":960,
			"type":"VEC3"
		},
		{
			"bufferView":5,
			"componentType":5123,
			"count":2892,
			"type":"SCALAR"
		},
		{
			"bufferView":6,
			"componentType":5126,
			"count":3282,
			"max":[
				0.03975763916969299,
				0.07473481446504593,
				0.0019999907817691565
			],
			"min":[
				0.030205678194761276,
				0.05638600140810013,
				-0.001999997766688466
			],
			"type":"VEC3"
		},
		{
			"bufferView":7,
			"componentType":5126,
			"count":3282,
			"type":"VEC3"
		},
		{
			"bufferView":8,
			"componentType":5123,
			"count":14352,
			"type":"SCALAR"
		},
		{
			"bufferView":9,
			"componentType":5126,
			"count":17157,
			"max":[
				0.039021193981170654,
				0.07881207764148712,
				0.011250006034970284
			],
			"min":[
				-0.0054082139395177364,
				-0.006199652794748545,
				-0.011250007897615433
			],
			"type":"VEC3"
		},
		{
			"bufferView":10,
			"componentType":5126,
			"count":17157,
			"type":"VEC3"
		},
		{
			"bufferView":11,
			"componentType":5123,
			"count":63993,
			"type":"SCALAR"
		}
	],
	"bufferViews":[
		{
			"buffer":0,
			"byteLength":289716,
			"byteOffset":0,
			"target":34962
		},
		{
			"buffer":0,
			"byteLength":289716,
			"byteOffset":289716,
			"target":34962
		},
		{
			"buffer":0,
			"byteLength":155646,
			"byteOffset":579432,
			"target":34963
		},
		{
			"buffer":0,
			"byteLength":11520,
			"byteOffset":735080,
			"target":34962
		},
		{
			"buffer":0,
			"byteLength":11520,
			"byteOffset":746600,
			"target":34962
		},
		{
			"buffer":0,
			"byteLength":5784,
			"byteOffset":758120,
			"target":34963
		},
		{
			"buffer":0,
			"byteLength":39384,
			"byteOffset":763904,
			"target":34962
		},
		{
			"buffer":0,
			"byteLength":39384,
			"byteOffset":803288,
			"target":34962
		},
		{
			"buffer":0,
			"byteLength":28704,
			"byteOffset":842672,
			"target":34963
		},
		{
			"buffer":0,
			"byteLength":205884,
			"byteOffset":871376,
			"target":34962
		},
		{
			"buffer":0,
			"byteLength":205884,
			"byteOffset":1077260,
			"target":34962
		},
		{
			"buffer":0,
			"byteLength":127986,
			"byteOffset":1283144,
			"target":34963
		}
	],
	"buffers":[
		{
			"byteLength":1411132,
			"uri":"KINOVA_Gen2_finger2.bin"
		}
	]
}
