{
	"asset":{
		"generator":"Khronos glTF Blender I/O v4.1.63",
		"version":"2.0"
	},
	"scene":0,
	"scenes":[
		{
			"name":"Scene",
			"nodes":[
				0
			]
		}
	],
	"nodes":[
		{
			"mesh":0,
			"name":"MI 7584 0001_D\u0082faut"
		}
	],
	"materials":[
		{
			"doubleSided":true,
			"name":"mat_0",
			"pbrMetallicRoughness":{
				"metallicFactor":0.5,
				"roughnessFactor":0.5
			}
		},
		{
			"doubleSided":true,
			"name":"mat_2",
			"pbrMetallicRoughness":{
				"baseColorFactor":[
					0.7230551242828369,
					0.7230551242828369,
					0.7681511640548706,
					1
				],
				"metallicFactor":0.5,
				"roughnessFactor":0.5
			}
		},
		{
			"doubleSided":true,
			"name":"mat_1",
			"pbrMetallicRoughness":{
				"baseColorFactor":[
					0.3049873411655426,
					0.3049873411655426,
					0.35640010237693787,
					1
				],
				"metallicFactor":0.5,
				"roughnessFactor":0.5
			}
		}
	],
	"meshes":[
		{
			"name":"MI 7584 0001_D\u0082faut",
			"primitives":[
				{
					"attributes":{
						"POSITION":0,
						"NORMAL":1
					},
					"indices":2,
					"material":0
				},
				{
					"attributes":{
						"POSITION":3,
						"NORMAL":4
					},
					"indices":5,
					"material":1
				},
				{
					"attributes":{
						"POSITION":6,
						"NORMAL":7
					},
					"indices":8,
					"material":2
				}
			]
		}
	],
	"accessors":[
		{
			"bufferView":0,
			"componentType":5126,
			"count":11147,
			"max":[
				0.04599975794553757,
				0.4542464315891266,
				0.04422817751765251
			],
			"min":[
				-0.00700028333812952,
				-0.04124993085861206,
				-0.04422834515571594
			],
			"type":"VEC3"
		},
		{
			"bufferView":1,
			"componentType":5126,
			"count":11147,
			"type":"VEC3"
		},
		{
			"bufferView":2,
			"componentType":5123,
			"count":37650,
			"type":"SCALAR"
		},
		{
			"bufferView":3,
			"componentType":5126,
			"count":2652,
			"max":[
				0.030250266194343567,
				0.04121603071689606,
				0.041246186941862106
			],
			"min":[
				0.004749726504087448,
				-0.0412159264087677,
				-0.041246332228183746
			],
			"type":"VEC3"
		},
		{
			"bufferView":4,
			"componentType":5126,
			"count":2652,
			"type":"VEC3"
		},
		{
			"bufferView":5,
			"componentType":5123,
			"count":8064,
			"type":"SCALAR"
		},
		{
			"bufferView":6,
			"componentType":5126,
			"count":2180,
			"max":[
				0.04749486595392227,
				0.45125001668930054,
				0.041249919682741165
			],
			"min":[
				0.007077598012983799,
				-0.04124993085861206,
				-0.04125018045306206
			],
			"type":"VEC3"
		},
		{
			"bufferView":7,
			"componentType":5126,
			"count":2180,
			"type":"VEC3"
		},
		{
			"bufferView":8,
			"componentType":5123,
			"count":11964,
			"type":"SCALAR"
		}
	],
	"bufferViews":[
		{
			"buffer":0,
			"byteLength":133764,
			"byteOffset":0,
			"target":34962
		},
		{
			"buffer":0,
			"byteLength":133764,
			"byteOffset":133764,
			"target":34962
		},
		{
			"buffer":0,
			"byteLength":75300,
			"byteOffset":267528,
			"target":34963
		},
		{
			"buffer":0,
			"byteLength":31824,
			"byteOffset":342828,
			"target":34962
		},
		{
			"buffer":0,
			"byteLength":31824,
			"byteOffset":374652,
			"target":34962
		},
		{
			"buffer":0,
			"byteLength":16128,
			"byteOffset":406476,
			"target":34963
		},
		{
			"buffer":0,
			"byteLength":26160,
			"byteOffset":422604,
			"target":34962
		},
		{
			"buffer":0,
			"byteLength":26160,
			"byteOffset":448764,
			"target":34962
		},
		{
			"buffer":0,
			"byteLength":23928,
			"byteOffset":474924,
			"target":34963
		}
	],
	"buffers":[
		{
			"byteLength":498852,
			"uri":"KINOVA_Gen2_j2.bin"
		}
	]
}
