{
	"asset":{
		"generator":"Khronos glTF Blender I/O v4.1.63",
		"version":"2.0"
	},
	"scene":0,
	"scenes":[
		{
			"name":"Scene",
			"nodes":[
				0
			]
		}
	],
	"nodes":[
		{
			"mesh":0,
			"name":"MT 6262 0006"
		}
	],
	"materials":[
		{
			"doubleSided":true,
			"name":"mat_0",
			"pbrMetallicRoughness":{
				"metallicFactor":0.5,
				"roughnessFactor":0.5
			}
		},
		{
			"doubleSided":true,
			"name":"mat_1",
			"pbrMetallicRoughness":{
				"baseColorFactor":[
					0.3049873411655426,
					0.3049873411655426,
					0.35640010237693787,
					1
				],
				"metallicFactor":0.5,
				"roughnessFactor":0.5
			}
		},
		{
			"doubleSided":true,
			"name":"mat_2",
			"pbrMetallicRoughness":{
				"baseColorFactor":[
					0.7230551242828369,
					0.7230551242828369,
					0.7681511640548706,
					1
				],
				"metallicFactor":0.5,
				"roughnessFactor":0.5
			}
		}
	],
	"meshes":[
		{
			"name":"MT 6262 0006",
			"primitives":[
				{
					"attributes":{
						"POSITION":0,
						"NORMAL":1
					},
					"indices":2,
					"material":0
				},
				{
					"attributes":{
						"POSITION":3,
						"NORMAL":4
					},
					"indices":5,
					"material":1
				},
				{
					"attributes":{
						"POSITION":6,
						"NORMAL":7
					},
					"indices":8,
					"material":2
				}
			]
		}
	],
	"accessors":[
		{
			"bufferView":0,
			"componentType":5126,
			"count":10731,
			"max":[
				0.031411923468112946,
				0.034500010311603546,
				0.0344756543636322
			],
			"min":[
				-0.04551834613084793,
				-0.09650003165006638,
				-0.0344756543636322
			],
			"type":"VEC3"
		},
		{
			"bufferView":1,
			"componentType":5126,
			"count":10731,
			"type":"VEC3"
		},
		{
			"bufferView":2,
			"componentType":5123,
			"count":36888,
			"type":"SCALAR"
		},
		{
			"bufferView":3,
			"componentType":5126,
			"count":1861,
			"max":[
				0.03151018172502518,
				0.03149997442960739,
				0.03150000050663948
			],
			"min":[
				-0.04754357039928436,
				-0.09650003165006638,
				-0.03150000050663948
			],
			"type":"VEC3"
		},
		{
			"bufferView":4,
			"componentType":5126,
			"count":1861,
			"type":"VEC3"
		},
		{
			"bufferView":5,
			"componentType":5123,
			"count":9990,
			"type":"SCALAR"
		},
		{
			"bufferView":6,
			"componentType":5126,
			"count":2312,
			"max":[
				0.03149999678134918,
				-0.08550003170967102,
				0.03149999678134918
			],
			"min":[
				-0.03149999678134918,
				-0.10350003093481064,
				-0.031499866396188736
			],
			"type":"VEC3"
		},
		{
			"bufferView":7,
			"componentType":5126,
			"count":2312,
			"type":"VEC3"
		},
		{
			"bufferView":8,
			"componentType":5123,
			"count":7020,
			"type":"SCALAR"
		}
	],
	"bufferViews":[
		{
			"buffer":0,
			"byteLength":128772,
			"byteOffset":0,
			"target":34962
		},
		{
			"buffer":0,
			"byteLength":128772,
			"byteOffset":128772,
			"target":34962
		},
		{
			"buffer":0,
			"byteLength":73776,
			"byteOffset":257544,
			"target":34963
		},
		{
			"buffer":0,
			"byteLength":22332,
			"byteOffset":331320,
			"target":34962
		},
		{
			"buffer":0,
			"byteLength":22332,
			"byteOffset":353652,
			"target":34962
		},
		{
			"buffer":0,
			"byteLength":19980,
			"byteOffset":375984,
			"target":34963
		},
		{
			"buffer":0,
			"byteLength":27744,
			"byteOffset":395964,
			"target":34962
		},
		{
			"buffer":0,
			"byteLength":27744,
			"byteOffset":423708,
			"target":34962
		},
		{
			"buffer":0,
			"byteLength":14040,
			"byteOffset":451452,
			"target":34963
		}
	],
	"buffers":[
		{
			"byteLength":465492,
			"uri":"KINOVA_Gen2_j4.bin"
		}
	]
}
